<?xml version="1.0" standalone="no"?>
<!DOCTYPE svg PUBLIC "-//W3C//DTD SVG 20010904//EN"
 "http://www.w3.org/TR/2001/REC-SVG-20010904/DTD/svg10.dtd">
<svg version="1.0" xmlns="http://www.w3.org/2000/svg"
 width="700.000000pt" height="700.000000pt" viewBox="0 0 700.000000 700.000000"
 preserveAspectRatio="xMidYMid meet">
<metadata>
Created by potrace 1.14, written by Peter Selinger 2001-2017
</metadata>
<g transform="translate(0.000000,700.000000) scale(0.100000,-0.100000)"
fill="#000000" stroke="none">
<path d="M3130 6460 l0 -370 -72 0 c-40 -1 -207 -1 -370 -1 l-298 -1 0 -368
c0 -285 3 -369 13 -372 6 -2 173 -4 370 -3 l357 1 0 -741 0 -740 -740 0 c-654
0 -740 1 -741 15 0 8 -1 175 -2 370 l-2 355 -367 1 c-203 0 -369 -2 -369 -5
-1 -3 -2 -170 -3 -371 l-1 -365 -365 -1 c-201 -1 -368 -2 -371 -3 -3 -1 -5
-167 -5 -370 l0 -369 362 0 c198 1 365 -1 370 -5 6 -3 10 -153 9 -371 l0 -366
371 0 372 0 0 366 c0 201 2 368 6 371 4 4 1302 7 1452 4 l20 -1 0 -737 0 -738
-371 -5 -370 -5 0 -367 0 -368 40 0 c22 -1 189 -1 371 0 l330 0 0 -366 c-1
-232 3 -368 9 -372 5 -3 173 -6 372 -7 l363 0 0 373 0 372 338 0 c185 -1 352
-1 370 -1 l32 1 0 370 0 370 -370 0 -370 0 2 741 3 741 733 1 c403 0 735 -3
738 -6 3 -3 5 -170 5 -371 l0 -366 372 2 372 3 0 368 0 367 25 1 c14 0 181 0
371 1 l346 0 -1 371 -1 371 -362 1 c-199 0 -365 3 -369 7 -4 4 -8 171 -8 370
l-1 363 -367 1 c-252 0 -368 -3 -369 -10 -1 -6 -2 -173 -3 -371 l-1 -360 -740
0 -740 0 -3 734 c-1 473 1 737 8 741 5 3 172 6 370 5 l360 0 1 50 c0 27 1 195
2 372 l2 322 -305 0 c-168 0 -335 0 -372 0 l-68 1 0 370 0 370 -370 0 -370 0
0 -370z"/>
</g>
</svg>
